<svg id="icn-lorrry" xmlns="http://www.w3.org/2000/svg" width="29.433" height="29.433" viewBox="0 0 29.433 29.433">
  <path id="Path_46" data-name="Path 46" d="M0,0H29.433V29.433H0Z" fill="none"/>
  <path id="Path_47" data-name="Path 47" d="M10.768,20.943a4.292,4.292,0,0,1-8.5,0H1V6.226A1.226,1.226,0,0,1,2.226,5H19.4a1.226,1.226,0,0,1,1.226,1.226V8.679H24.3l3.679,4.974v7.289h-2.5a4.292,4.292,0,0,1-8.5,0Zm7.4-13.49H3.453v9.872A4.292,4.292,0,0,1,10.4,18.49h6.958a4.325,4.325,0,0,1,.813-1.165Zm2.453,7.358h4.905v-.35l-2.463-3.33H20.622Zm.613,7.358a1.84,1.84,0,1,0-1.84-1.84,1.84,1.84,0,0,0,1.84,1.84ZM8.358,20.329a1.84,1.84,0,1,0-1.84,1.84,1.84,1.84,0,0,0,1.84-1.84Z" transform="translate(0.226 1.132)" fill="#facd01"/>
</svg>
