<svg id="icn-license" xmlns="http://www.w3.org/2000/svg" width="24.892" height="24.892" viewBox="0 0 24.892 24.892">
  <path id="Path_44" data-name="Path 44" d="M0,0H24.892V24.892H0Z" fill="none"/>
  <path id="Path_45" data-name="Path 45" d="M19.632,22.744H5.112A3.112,3.112,0,0,1,2,19.632V3.037A1.037,1.037,0,0,1,3.037,2H17.558a1.037,1.037,0,0,1,1.037,1.037V15.483h4.149v4.149A3.112,3.112,0,0,1,19.632,22.744Zm-1.037-5.186v2.074a1.037,1.037,0,1,0,2.074,0V17.558Zm-2.074,3.112V4.074H4.074V19.632a1.037,1.037,0,0,0,1.037,1.037ZM6.149,7.186h8.3V9.26h-8.3Zm0,4.149h8.3v2.074h-8.3Zm0,4.149h5.186v2.074H6.149Z" transform="translate(0.074 0.074)" fill="#facd01"/>
</svg>
