<svg id="icn-lorry" xmlns="http://www.w3.org/2000/svg" width="41.63" height="41.63" viewBox="0 0 41.63 41.63">
  <path id="Path_27" data-name="Path 27" d="M0,0H41.63V41.63H0Z" fill="none"/>
  <path id="Path_28" data-name="Path 28" d="M14.816,27.55a6.071,6.071,0,0,1-12.021,0H1V6.735A1.735,1.735,0,0,1,2.735,5H27.019a1.735,1.735,0,0,1,1.735,1.735V10.2h5.2l5.2,7.035V27.55h-3.53a6.071,6.071,0,0,1-12.021,0ZM25.284,8.469H4.469V22.433a6.071,6.071,0,0,1,9.823,1.648h9.842a6.117,6.117,0,0,1,1.15-1.648Zm3.469,10.408h6.938v-.494l-3.483-4.709H28.753Zm.867,10.408a2.6,2.6,0,1,0-2.6-2.6,2.6,2.6,0,0,0,2.6,2.6Zm-18.213-2.6a2.6,2.6,0,1,0-2.6,2.6,2.6,2.6,0,0,0,2.6-2.6Z" transform="translate(0.735 3.673)" fill="#fff"/>
</svg>
