<svg id="Group_5" data-name="Group 5" xmlns="http://www.w3.org/2000/svg" width="24" height="24" viewBox="0 0 24 24">
  <path id="Path_9" data-name="Path 9" d="M0,0H24V24H0Z" fill="none"/>
  <path id="Path_10" data-name="Path 10" d="M19.375,15.1A8,8,0,0,0,8.03,5.053L7.038,3.316A10,10,0,0,1,21.117,16.11l1.342.774L18.294,19.1l-.165-4.714,1.246.719ZM4.625,8.9A8,8,0,0,0,15.97,18.947l.992,1.737A10,10,0,0,1,2.883,7.89L1.54,7.117,5.7,4.9,5.87,9.617,4.624,8.9ZM8.5,14H14a.5.5,0,0,0,0-1H10a2.5,2.5,0,1,1,0-5h1V7h2V8h2.5v2H10a.5.5,0,0,0,0,1h4a2.5,2.5,0,0,1,0,5H13v1H11V16H8.5Z" fill="#facd01"/>
</svg>
